<?xml version="1.0" encoding="UTF-8" standalone="no"?>
<svg
   xmlns:dc="http://purl.org/dc/elements/1.1/"
   xmlns:cc="http://creativecommons.org/ns#"
   xmlns:rdf="http://www.w3.org/1999/02/22-rdf-syntax-ns#"
   xmlns:svg="http://www.w3.org/2000/svg"
   xmlns="http://www.w3.org/2000/svg"
   id="svg6"
   xml:space="preserve"
   enable-background="new 0 0 200 200"
   viewBox="0 0 200 200"
   y="0px"
   x="0px"
   version="1.1"><metadata
     id="metadata12"><rdf:RDF><cc:Work
         rdf:about=""><dc:format>image/svg+xml</dc:format><dc:type
           rdf:resource="http://purl.org/dc/dcmitype/StillImage" /></cc:Work></rdf:RDF></metadata><defs
     id="defs10" /><rect
     id="rect2"
     fill="#ffffff"
     height="200"
     width="200" /><path
     id="path4"
     d="m135.12 40-34.975 0.006c-19.234-0.0026-35.029 0.0017-35.098 0.0098-0.0683 0.0068-0.29251 0.03692-0.49804 0.06643-0.20518 0.02916-0.55616 0.09404-0.78125 0.14453-0.22473 0.05014-0.61685 0.15862-0.87109 0.24219-0.25425 0.08357-0.62279 0.21988-0.81836 0.30273-0.19557 0.08246-0.53592 0.24754-0.75781 0.36523-0.22153 0.1177-0.59008 0.33751-0.81836 0.48828-0.22794 0.15077-0.58353 0.40726-0.78906 0.57226-0.20517 0.16464-0.55614 0.48387-0.78125 0.70899-0.22509 0.22509-0.54431 0.57764-0.70898 0.7832-0.16499 0.20517-0.42398 0.56092-0.57617 0.79101-0.1522 0.23007-0.3633 0.58301-0.4707 0.7832-0.10738 0.20019-0.27119 0.5388-0.36329 0.7539-0.09175 0.21513-0.2348 0.59927-0.31836 0.85352-0.08357 0.25424-0.19204 0.64603-0.24218 0.87109-0.05014 0.22473-0.11751 0.57767-0.14844 0.7832-0.03095 0.20516-0.06975 0.66926-0.08789 1.0312-0.01919 0.39185-0.03317 20.784-0.03317 50.422 0 29.637 0.01398 50.03 0.03317 50.422 0.01816 0.36164 0.05696 0.8257 0.08789 1.0312 0.03095 0.20517 0.0983 0.55811 0.14844 0.7832 0.0498 0.22474 0.16713 0.64007 0.26172 0.92383s0.25821 0.71012 0.36523 0.94726c0.10668 0.23754 0.27969 0.58056 0.38281 0.76368 0.10312 0.18348 0.29563 0.49742 0.42969 0.69727 0.13406 0.19947 0.37603 0.52725 0.53711 0.7285 0.16108 0.20091 0.47769 0.55029 0.70312 0.7754 0.22544 0.22472 0.57486 0.53974 0.77539 0.70117 0.20091 0.16143 0.52902 0.40341 0.72852 0.53711 0.19984 0.13335 0.5388 0.34146 0.7539 0.46094 0.21512 0.11947 0.58367 0.29941 0.81836 0.40038 0.23469 0.10134 0.63442 0.25203 0.88867 0.33594 0.25425 0.0839 0.64636 0.19402 0.87109 0.24415 0.22509 0.0501 0.57608 0.1175 0.78125 0.14843 0.20553 0.031 0.66959 0.0698 1.0313 0.0879 0.389 0.0192 15.282 0.0328 36.449 0.0332 21.012 0 35.995-0.0125 36.287-0.0313 0.2738-0.0177 0.66059-0.0668 0.85937-0.10742 0.19877-0.0406 0.51094-0.1219 0.69336-0.18164 0.18277-0.0593 0.4999-0.18738 0.70507-0.28516 0.20554-0.0982 0.55848-0.30058 0.78321-0.44921 0.30439-0.20126 0.52776-0.39033 0.87304-0.73633 0.33995-0.34065 0.53563-0.574 0.73438-0.87305 0.14935-0.22509 0.35304-0.57804 0.45118-0.7832 0.0978-0.20554 0.22576-0.52231 0.28515-0.70508 0.0597-0.18241 0.14269-0.49459 0.18359-0.69336 0.0405-0.19878 0.088-0.59319 0.10547-0.87695 0.0185-0.29976 0.0313-22.203 0.0313-52.289 0-30.851-0.0139-52.04-0.0332-52.432-0.0181-0.36199-0.0569-0.82608-0.0879-1.0312-0.031-0.20553-0.0983-0.55848-0.14845-0.7832-0.0498-0.22509-0.16713-0.64045-0.26171-0.92383-0.0946-0.28376-0.25945-0.71224-0.36719-0.95117-0.10775-0.23932-0.27969-0.58268-0.38281-0.76368-0.10312-0.18135-0.29634-0.49355-0.42969-0.69336-0.13334-0.19949-0.37408-0.52725-0.53516-0.72851-0.16143-0.20091-0.47768-0.54962-0.70312-0.77539-0.22508-0.22615-0.57802-0.54539-0.7832-0.70899-0.20518-0.16357-0.56095-0.42203-0.79102-0.57422-0.23006-0.15219-0.58105-0.36527-0.78125-0.47266-0.19826-0.11716-0.55155-0.28339-0.77539-0.38085-0.23024-0.0974-0.59506-0.23552-0.8125-0.30664-0.22384-0.07069-0.56151-0.16845-0.75976-0.2168-0.19826-0.04869-0.56362-0.12461-0.80665-0.16797zm-67.119 3.9668 33.361 0.01757 33.363 0.0098 0.30273 0.06054c0.16642 0.03377 0.46441 0.10842 0.66211 0.16602 0.1977 0.05799 0.50811 0.16946 0.68945 0.24805 0.18135 0.07896 0.45771 0.22005 0.61524 0.3125 0.15787 0.09281 0.41669 0.26262 0.57421 0.3789 0.15753 0.11592 0.42804 0.34779 0.60157 0.51563 0.17353 0.16819 0.42454 0.44705 0.55859 0.61915 0.13371 0.1721 0.32498 0.44741 0.42383 0.61133 0.0992 0.16393 0.24989 0.45693 0.33594 0.65038 0.0857 0.19344 0.19471 0.48578 0.24414 0.65039 0.049 0.16464 0.1159 0.41955 0.14649 0.56641 0.0309 0.14651 0.0706 0.41188 0.0898 0.5879 0.0231 0.20944 0.0351 14.951 0.0351 42.617 0 27.667-0.012 42.407-0.0351 42.617-0.0192 0.17602-0.0589 0.43908-0.0898 0.58593-0.0306 0.14651-0.0974 0.40176-0.14649 0.56641-0.0495 0.16463-0.15844 0.45697-0.24414 0.65039-0.0861 0.19343-0.23673 0.48645-0.33594 0.65039-0.0988 0.16392-0.29137 0.43922-0.42578 0.61133-0.13407 0.1721-0.3778 0.44422-0.54101 0.60352s-0.41334 0.37876-0.55664 0.48828c-0.14295 0.10916-0.39308 0.27809-0.55665 0.37695-0.16357 0.0988-0.45698 0.24989-0.65039 0.33594-0.19344 0.0857-0.48577 0.19667-0.65039 0.24609-0.16464 0.049-0.41955 0.11395-0.56641 0.14454-0.14649 0.0309-0.40991 0.0726-0.58593 0.0918-0.20873 0.0231-11.841 0.0351-33.471 0.0351l-33.148-0.006zm35.947 5.9844c-0.24037 0.0026-0.55824 0.0168-0.70509 0.03317-0.1465 0.01671-0.43313 0.06293-0.63866 0.10352-0.20518 0.0405-0.5661 0.13928-0.80079 0.2168-0.23469 0.07785-0.61882 0.23476-0.85351 0.34961s-0.57008 0.304-0.74609 0.41992c-0.17602 0.11628-0.44104 0.30649-0.5879 0.42383-0.14721 0.11698-0.39468 0.34194-0.55078 0.49804-0.15646 0.15646-0.37414 0.39382-0.48437 0.5293s-0.28928 0.38135-0.39844 0.54492c-0.10917 0.16321-0.28856 0.47308-0.39844 0.6875-0.10952 0.21442-0.26127 0.55086-0.33594 0.75-0.0747 0.19913-0.17607 0.5308-0.22656 0.73633-0.05048 0.20517-0.11625 0.54395-0.14648 0.75195-0.03095 0.2162-0.05304 0.61818-0.0527 0.94141 0.000358 0.31043 0.02311 0.73462 0.05082 0.94336 0.02771 0.20836 0.08995 0.53578 0.13867 0.72851 0.04869 0.19238 0.13894 0.49392 0.20118 0.66993 0.06182 0.17602 0.18915 0.4802 0.28125 0.67578 0.09209 0.19557 0.25057 0.48823 0.35156 0.65039 0.10064 0.1625 0.27595 0.4183 0.38867 0.56836 0.11307 0.15006 0.35486 0.43103 0.53906 0.62304 0.1842 0.19166 0.47279 0.4581 0.64063 0.5918s0.44367 0.33313 0.61329 0.44336c0.16961 0.11059 0.50077 0.29283 0.73437 0.40626 0.23362 0.11307 0.56191 0.2533 0.73047 0.31055l0.30664 0.10351v3.3203l-0.22265-0.05082c-0.12232-0.02805-0.36501-0.09368-0.54102-0.14453-0.17602-0.05116-0.49581-0.16058-0.71094-0.24414-0.21513-0.08357-0.51609-0.20959-0.66797-0.27929-0.15184-0.07009-0.40727-0.20247-0.56836-0.29492-0.16107-0.0921-0.42167-0.25057-0.57813-0.35156s-0.46827-0.35183-0.69336-0.55664c-0.22474-0.20482-0.56988-0.55402-0.76757-0.77734-0.1977-0.2233-0.48948-0.57947-0.64844-0.79101-0.15894-0.21194-0.37928-0.53173-0.49023-0.71094-0.11059-0.17958-0.29477-0.46392-0.40821-0.63282-0.11308-0.16855-0.33731-0.47273-0.49804-0.67578-0.16072-0.20268-0.50975-0.58753-0.77539-0.85352-0.26221-0.26477-0.64759-0.61426-0.85352-0.77734-0.20465-0.16308-0.56142-0.42005-0.79101-0.57226-0.23024-0.15221-0.58437-0.36589-0.78711-0.47461-0.20146-0.10808-0.53228-0.26916-0.73438-0.35742-0.20146-0.08826-0.56691-0.23134-0.8125-0.3164-0.24686-0.0857-0.64828-0.20355-0.89258-0.26367-0.24428-0.0608-0.64404-0.14252-0.88867-0.18164-0.24428-0.0388-0.63641-0.08716-0.87109-0.10743-0.23469-0.01995-0.79435-0.03675-1.2441-0.03709-0.44981-0.000349-1.0502-0.01722-1.334-0.03709-0.2834-0.01995-0.74748-0.05995-1.0313-0.08984-0.2834-0.03019-0.77355-0.09369-1.0879-0.14062-0.31469-0.04733-0.81759-0.13486-1.1191-0.19531-0.30153-0.06046-0.77841-0.16646-1.0586-0.23438-0.28021-0.0683-0.75228-0.1952-1.0488-0.28125-0.29656-0.08641-0.77358-0.2362-1.0605-0.33399-0.2866-0.09814-0.78388-0.28038-1.1035-0.40625-0.31932-0.12588-0.77881-0.32158-1.0234-0.43359-0.24429-0.11165-0.61409-0.27173-0.82031-0.35742-0.20624-0.0857-0.50281-0.19081-0.6582-0.23243-0.17566-0.04733-0.4375-0.08144-0.69141-0.0918-0.30189-0.01279-0.47329-0.0026-0.6543 0.03905-0.13442 0.03164-0.35866 0.11727-0.49805 0.18945-0.16961 0.08819-0.34066 0.21852-0.51953 0.39844-0.14649 0.14756-0.31934 0.36064-0.38476 0.47265-0.06574 0.11201-0.16116 0.30311-0.21094 0.42578-0.0498 0.12268-0.11927 0.33576-0.15625 0.47266-0.03701 0.1369-0.07683 0.43312-0.08789 0.6582-0.01424 0.29372-0.0043 0.50836 0.03709 0.76368 0.03198 0.19557 0.10026 0.54054 0.1504 0.76562 0.05014 0.22473 0.17174 0.65478 0.26953 0.95703 0.09814 0.30225 0.24846 0.71742 0.33593 0.92187 0.08748 0.20482 0.23834 0.52849 0.33399 0.71876 0.09529 0.19024 0.25572 0.48702 0.35742 0.66015 0.1017 0.17317 0.29315 0.47432 0.42578 0.66992 0.13264 0.19557 0.38135 0.53292 0.55274 0.74805s0.56742 0.64394 0.8789 0.95508l0.56641 0.56641 0.0097 0.60742c0.006 0.38829 0.0376 0.79222 0.08594 1.1172 0.04127 0.27949 0.12084 0.6872 0.17773 0.90625 0.05654 0.21904 0.15298 0.54149 0.21484 0.71679 0.06225 0.1753 0.18331 0.47419 0.26758 0.66407 0.08425 0.18988 0.25144 0.51855 0.37305 0.73046 0.12161 0.21158 0.29995 0.49786 0.39453 0.63477 0.09459 0.1369 0.27699 0.38136 0.4082 0.54493 0.13086 0.16321 0.39765 0.45536 0.5918 0.64843 0.1938 0.19308 0.49852 0.46964 0.67773 0.61328 0.17958 0.14402 0.44725 0.34167 0.59375 0.43946 0.14686 0.09814 0.37838 0.24261 0.51563 0.32226l0.25 0.14453 0.22656 0.86524c0.12481 0.47613 0.31485 1.1386 0.42188 1.4707 0.10703 0.33211 0.2664 0.77101 0.35351 0.97656 0.08748 0.20588 0.23301 0.51133 0.32226 0.67774 0.08925 0.16642 0.24206 0.4215 0.33984 0.56836 0.09743 0.1465 0.24863 0.36224 0.33789 0.47852 0.0889 0.11592 0.28408 0.33148 0.43164 0.48047s0.3906 0.3688 0.54101 0.48828c0.15077 0.11913 0.41507 0.30509 0.58789 0.41211 0.17281 0.10668 0.4015 0.23731 0.50782 0.29101 0.10597 0.05406 0.36514 0.16803 0.57422 0.25196 0.20873 0.08391 0.54983 0.20038 0.75782 0.25977 0.20837 0.05978 0.56625 0.14768 0.79492 0.19532 0.229 0.04767 0.60712 0.11165 0.84179 0.14258 0.23469 0.0313 0.67729 0.07299 0.98242 0.0918 0.36411 0.02277 0.63014 0.02277 0.77344 0 0.12019-0.01953 0.55717-0.15587 0.9707-0.30274 0.41319-0.14686 1.0767-0.3695 1.4746-0.49609 0.3979-0.1266 1.0005-0.30864 1.3379-0.4043 0.33781-0.09565 0.93308-0.25467 1.3242-0.35352 0.39114-0.09886 1.0924-0.26176 1.5586-0.36132 0.46618-0.09992 1.271-0.25237 1.7891-0.33985 0.51774-0.08747 1.3218-0.20767 1.7852-0.26562 0.46297-0.05799 1.0972-0.12745 1.4102-0.15625 0.31292-0.02848 0.68432-0.06216 0.82618-0.07419l0.25-0.023v3.0195l-0.27539 0.02345c-0.15148 0.01279-0.56398 0.05457-0.91601 0.09375-0.35204 0.0388-0.96059 0.12563-1.3535 0.19141-0.39328 0.06583-0.97206 0.17798-1.2871 0.24804-0.31469 0.07043-0.87451 0.21276-1.2422 0.31836-0.36803 0.10525-0.88423 0.27082-1.1484 0.36718-0.26384 0.09637-0.66361 0.25308-0.88867 0.34766-0.22473 0.09494-0.61741 0.2793-0.87305 0.41015-0.25602 0.13086-0.62956 0.34003-0.83008 0.46485-0.20055 0.12481-0.53539 0.35278-0.74415 0.50782-0.20873 0.15504-0.57989 0.4828-0.82421 0.72852-0.24465 0.2457-0.54884 0.59634-0.67579 0.77734-0.1273 0.18099-0.30758 0.47562-0.40039 0.65625-0.09281 0.18099-0.22559 0.50414-0.29492 0.7168-0.06933 0.21229-0.14947 0.54767-0.17969 0.74609-0.04016 0.26243-0.05057 0.51031-0.03709 0.91211 0.01458 0.42421 0.03974 0.6333 0.10938 0.91211 0.0498 0.19949 0.14746 0.50367 0.2168 0.67578 0.06933 0.17246 0.20033 0.4412 0.29101 0.59766 0.09067 0.15646 0.252 0.40588 0.35938 0.55274 0.10702 0.1465 0.3958 0.46591 0.64257 0.71094 0.24678 0.245 0.60147 0.56144 0.78711 0.70117 0.18597 0.1401 0.50577 0.35956 0.71094 0.48828 0.20552 0.12908 0.6533 0.37442 0.9961 0.54688 0.34278 0.1721 0.85843 0.4061 1.1465 0.51953l0.52539 0.20703-0.34961 0.36132c-0.19202 0.19949-0.44941 0.51042-0.57031 0.69141-0.12126 0.18099-0.28132 0.46144-0.35742 0.62109-0.07572 0.15966-0.18582 0.42538-0.24414 0.5918-0.05867 0.16606-0.13366 0.43143-0.16602 0.58789-0.0324 0.15646-0.07334 0.43229-0.0918 0.61328-0.02635 0.25105-0.0226 0.42379 0.01757 0.72852 0.02916 0.22011 0.0944 0.55107 0.14454 0.73633 0.0498 0.18562 0.14745 0.48219 0.2168 0.6582 0.06933 0.17636 0.2138 0.47881 0.32226 0.67187 0.10809 0.19308 0.31374 0.50703 0.45704 0.69726 0.1433 0.19024 0.42196 0.498 0.61719 0.6836 0.19522 0.18561 0.49867 0.43734 0.67578 0.55859 0.17708 0.12126 0.44795 0.28701 0.60156 0.36914l0.2793 0.1504-0.26954 0.32421c-0.14864 0.1785-0.35002 0.45647-0.44531 0.6172-0.0953 0.16107-0.22772 0.42715-0.29492 0.59179-0.06685 0.16498-0.16311 0.45432-0.21289 0.64453-0.07146 0.27274-0.0939 0.46162-0.10742 0.89648-0.01492 0.47151-0.006 0.60648 0.05858 0.92579 0.04229 0.20517 0.14035 0.52971 0.2168 0.7207 0.07649 0.19095 0.20355 0.45721 0.28321 0.59375 0.07964 0.1362 0.23902 0.37355 0.35351 0.52539 0.1145 0.15184 0.36711 0.42944 0.56055 0.61719 0.19343 0.18775 0.48613 0.44017 0.65039 0.5625 0.16464 0.12196 0.44932 0.30988 0.63281 0.41797 0.18312 0.10775 0.48377 0.26746 0.66798 0.35351 0.18455 0.0861 0.48338 0.21173 0.66406 0.2793 0.18063 0.0675 0.43361 0.15461 0.56055 0.19336 0.1273 0.0391 0.43912 0.11959 0.69336 0.17969 0.25425 0.0601 0.49603 0.11806 0.53906 0.12695l0.0781 0.0156 0.0117 2.2852 0.01 2.2852 0.0957 0.25781c0.0519 0.14224 0.14302 0.33333 0.20312 0.42578 0.0601 0.0928 0.15688 0.21974 0.21484 0.28125 0.0583 0.0616 0.17355 0.16806 0.25782 0.23633 0.0839 0.0683 0.23743 0.1656 0.33984 0.2168s0.28552 0.11769 0.4082 0.14648c0.12268 0.0292 0.33576 0.0527 0.47266 0.0527s0.3514-0.0251 0.47656-0.0547c0.12517-0.0295 0.334-0.11071 0.46485-0.17969 0.13122-0.0686 0.32427-0.20724 0.42773-0.30859 0.10347-0.10134 0.24175-0.26655 0.3086-0.36719 0.0665-0.10027 0.16417-0.30094 0.21679-0.44531l0.0957-0.26172 0.0117-2.2852 0.01-2.2852 0.0781-0.0176c0.0431-0.01 0.23041-0.0496 0.41602-0.0898 0.18598-0.0406 0.50167-0.12173 0.70118-0.1797 0.19983-0.0579 0.50402-0.15918 0.67577-0.22461 0.1721-0.0657 0.46706-0.19075 0.65625-0.27929 0.18917-0.0882 0.49463-0.24967 0.67774-0.35742 0.18348-0.10809 0.46942-0.29601 0.63476-0.41797 0.16535-0.12197 0.45801-0.37475 0.65039-0.5625 0.19273-0.18775 0.44374-0.46535 0.5586-0.61719 0.11484-0.15183 0.27387-0.3892 0.35351-0.52539 0.0797-0.13654 0.20676-0.40281 0.28321-0.59375 0.0765-0.19096 0.17271-0.51019 0.21289-0.70898 0.0498-0.245 0.0722-0.49835 0.0722-0.78711 0-0.23398-0.0231-0.56349-0.0527-0.73243-0.0295-0.16889-0.10256-0.45412-0.16016-0.63476-0.0579-0.18064-0.17744-0.47137-0.26563-0.64453-0.0885-0.17317-0.23177-0.41533-0.3203-0.53907-0.0885-0.1241-0.24826-0.32653-0.35352-0.44921l-0.19141-0.22461 0.28125-0.14844c0.15469-0.0829 0.42555-0.25055 0.60157-0.37109 0.17601-0.12055 0.47332-0.36411 0.66211-0.54297 0.18881-0.1785 0.45597-0.46888 0.5918-0.64453 0.13583-0.17602 0.3301-0.46462 0.43358-0.64063 0.10384-0.17637 0.2531-0.47259 0.33204-0.6582 0.079-0.18597 0.18548-0.48219 0.23633-0.6582 0.0508-0.17602 0.11874-0.46266 0.15039-0.63867 0.0316-0.17602 0.0564-0.49015 0.0547-0.69531-0.002-0.2162-0.0333-0.52406-0.0742-0.73242-0.0391-0.19735-0.11925-0.50563-0.1797-0.68554-0.0605-0.18028-0.17407-0.46144-0.25194-0.62501-0.0782-0.16321-0.24009-0.44596-0.36134-0.62695-0.1209-0.18099-0.3767-0.49065-0.56836-0.68945l-0.34765-0.36133 0.52148-0.20703c0.28803-0.11379 0.81966-0.35735 1.1816-0.53906 0.36199-0.18171 0.87449-0.47352 1.1387-0.64844 0.26421-0.1753 0.60809-0.42153 0.76562-0.54883s0.46563-0.41764 0.6836-0.64453c0.23006-0.23931 0.50105-0.56752 0.64648-0.78516 0.13797-0.20624 0.31312-0.50724 0.39063-0.66797 0.0772-0.16037 0.18103-0.41705 0.23046-0.57031 0.0498-0.15326 0.1198-0.4087 0.1543-0.56836 0.047-0.21762 0.061-0.44965 0.0605-0.92969-0.00064-0.48145-0.0165-0.71439-0.0645-0.93554-0.0352-0.16179-0.10858-0.42787-0.16405-0.5918-0.0554-0.16393-0.16662-0.42911-0.24805-0.58984-0.0811-0.16108-0.20534-0.38231-0.27539-0.49218-0.0704-0.10987-0.20105-0.29672-0.29102-0.41407-0.0896-0.11734-0.28992-0.34531-0.44531-0.50782-0.15539-0.16215-0.41279-0.40536-0.57031-0.53906-0.15788-0.13335-0.4626-0.36291-0.67774-0.50977-0.21512-0.14651-0.56614-0.36684-0.78125-0.49023-0.21477-0.12339-0.58332-0.31449-0.81836-0.42578-0.23469-0.11095-0.6188-0.27828-0.85351-0.37109-0.23469-0.09316-0.68496-0.25483-1-0.35937-0.31541-0.10454-0.88267-0.26976-1.2617-0.36719-0.37941-0.09778-0.94207-0.22542-1.25-0.28515-0.30795-0.05978-0.82038-0.1489-1.1387-0.19727-0.3179-0.04801-0.89384-0.12069-1.2793-0.16016-0.3858-0.03982-0.7336-0.07223-0.77344-0.07223h-0.0704v-3.0273l0.2754 0.02149c0.15148 0.01279 0.60317 0.05457 1.0039 0.09375 0.4011 0.03948 1.0316 0.11215 1.4004 0.16016 0.36874 0.04801 1.0883 0.15773 1.5996 0.24414 0.51133 0.08642 1.273 0.22982 1.6934 0.31836 0.42031 0.0889 1.1166 0.2488 1.5469 0.35548 0.43026 0.10668 1.1436 0.29847 1.5859 0.42577 0.44235 0.12765 1.1639 0.35031 1.6016 0.4961 0.43772 0.14579 1.0603 0.35887 1.3828 0.47266l0.58594 0.20507 0.46679-0.006c0.25744-0.0034 0.64158-0.02166 0.85352-0.04298 0.21229-0.02098 0.55457-0.06421 0.75977-0.09375 0.20553-0.02951 0.55847-0.09279 0.7832-0.14258 0.22473-0.0498 0.63154-0.16465 0.9043-0.25391 0.28874-0.09423 0.7125-0.272 1.0137-0.42383 0.28482-0.14331 0.66705-0.36807 0.85156-0.5 0.18455-0.13228 0.47208-0.3677 0.63672-0.52344 0.16499-0.15575 0.39136-0.39737 0.50586-0.53712 0.11414-0.13975 0.29584-0.38667 0.40429-0.54882 0.10846-0.16214 0.29299-0.48016 0.4082-0.70703 0.11522-0.22722 0.28221-0.59807 0.3711-0.82422 0.0892-0.22651 0.23355-0.65142 0.32031-0.94336 0.0864-0.29194 0.25038-0.88792 0.36524-1.3242l0.20898-0.79298 0.19532-0.10937c0.1081-0.06114 0.35946-0.22052 0.55859-0.35352 0.19949-0.13299 0.5113-0.3661 0.69336-0.51758 0.18207-0.15112 0.47916-0.42606 0.66016-0.61133 0.18099-0.1849 0.45753-0.50046 0.61328-0.69922 0.1561-0.19913 0.3823-0.51946 0.50391-0.7129 0.1216-0.19344 0.31376-0.53399 0.42577-0.75586 0.11236-0.22224 0.27687-0.60267 0.36719-0.84765 0.0903-0.24536 0.21069-0.62809 0.26758-0.84961 0.0572-0.22117 0.13844-0.63068 0.17969-0.91016 0.0472-0.32074 0.078-0.73352 0.084-1.1172l0.01-0.60742 0.56836-0.56445c0.31185-0.31113 0.7075-0.74195 0.8789-0.95703 0.17139-0.21512 0.4201-0.55053 0.55274-0.74609 0.13263-0.19557 0.32409-0.49868 0.42578-0.67188 0.10171-0.17317 0.26088-0.46743 0.35547-0.65625 0.0946-0.18882 0.241-0.50367 0.32421-0.69922 0.0836-0.19557 0.23673-0.61286 0.33985-0.92578s0.23554-0.79262 0.29492-1.0664c0.059-0.2738 0.12656-0.6322 0.15039-0.79687 0.0259-0.18135 0.0327-0.44821 0.0195-0.67579-0.0121-0.20695-0.0513-0.4881-0.0879-0.625-0.0367-0.1369-0.10648-0.34998-0.15626-0.47266-0.0498-0.12268-0.14516-0.3136-0.21094-0.42383-0.0654-0.11022-0.21202-0.30078-0.32616-0.42382-0.11379-0.12303-0.3095-0.28701-0.4336-0.36524-0.12374-0.0782-0.32547-0.17856-0.44921-0.22266-0.19237-0.0683-0.29809-0.08101-0.72266-0.08203-0.4107-0.000707-0.55151 0.01245-0.80078 0.08007-0.16605 0.04511-0.47026 0.15135-0.67579 0.23633-0.20516 0.08468-0.57371 0.24576-0.81836 0.35742-0.24428 0.112-0.73958 0.32101-1.1016 0.46288-0.36162 0.14188-0.92921 0.34592-1.2617 0.45508-0.33247 0.10917-0.77296 0.24796-0.97851 0.30664-0.20517 0.05833-0.5661 0.15422-0.80079 0.21289-0.23468 0.05867-0.65763 0.15262-0.9414 0.21094-0.28339 0.05867-0.76307 0.1482-1.0664 0.19726-0.30295 0.04946-0.75944 0.11431-1.0137 0.14454-0.25424 0.03019-0.64636 0.07078-0.87109 0.0918-0.22473 0.02098-1.0497 0.0533-1.832 0.07026-1.1422 0.02524-1.5203 0.04536-1.9199 0.10547-0.2738 0.04093-0.6913 0.12084-0.92773 0.17773-0.23647 0.05722-0.61156 0.1613-0.83204 0.23242-0.22047 0.07112-0.56916 0.20071-0.77539 0.28711-0.20624 0.08641-0.58752 0.26846-0.84961 0.4043-0.26207 0.13619-0.6403 0.35387-0.83984 0.48437-0.19913 0.13015-0.49 0.33508-0.64649 0.45312-0.15646 0.11841-0.46226 0.36943-0.67774 0.5586-0.21548 0.18954-0.52744 0.49391-0.69531 0.67774-0.16783 0.18349-0.41424 0.47031-0.54687 0.63672-0.13227 0.16605-0.37655 0.51138-0.54297 0.76562-0.16641 0.25425-0.39243 0.59727-0.50195 0.76368-0.10953 0.16606-0.35292 0.49382-0.54102 0.72851s-0.53304 0.61775-0.76562 0.84961c-0.23256 0.23149-0.56616 0.53676-0.74219 0.67968-0.17601 0.14259-0.46461 0.3516-0.64063 0.46289-0.17601 0.11095-0.54456 0.31161-0.81836 0.44531s-0.70633 0.31328-0.96093 0.40039c-0.25425 0.08711-0.60524 0.19366-0.78126 0.23633-0.17565 0.04306-0.34867 0.08574-0.3828 0.0957l-0.0625 0.01757v-3.3301l0.3086-0.10546c0.16961-0.05764 0.5098-0.20209 0.75586-0.32227 0.24571-0.12054 0.59156-0.315 0.76757-0.43164 0.17602-0.11663 0.44034-0.31057 0.5879-0.42969 0.14793-0.11948 0.42092-0.37367 0.60547-0.56641 0.1849-0.19238 0.42793-0.47299 0.54101-0.62304 0.11271-0.15005 0.28804-0.40586 0.38867-0.56836 0.10099-0.16215 0.25947-0.45481 0.35157-0.65039 0.0921-0.19557 0.21654-0.49746 0.27734-0.66992s0.1427-0.4435 0.1836-0.60352c0.0408-0.16001 0.0994-0.41971 0.1289-0.57617 0.0292-0.15646 0.0615-0.57354 0.0722-0.92774 0.0118-0.39328 0.004-0.78062-0.0215-0.99609-0.0228-0.19343-0.0733-0.5047-0.11133-0.69141-0.038-0.18633-0.12686-0.5141-0.19726-0.72852-0.07-0.21443-0.214-0.57271-0.32032-0.79492-0.10632-0.2226-0.26711-0.52523-0.35742-0.67383-0.0907-0.14899-0.24808-0.38423-0.35156-0.52148-0.10347-0.1369-0.2928-0.36912-0.42188-0.51563-0.12907-0.14686-0.37583-0.39042-0.54687-0.54296-0.17104-0.15219-0.50359-0.40782-0.73828-0.56641-0.23469-0.15895-0.61688-0.38071-0.85157-0.49414-0.23469-0.11379-0.61882-0.26978-0.85351-0.34766-0.23469-0.07785-0.58763-0.17378-0.7832-0.21289-0.19557-0.03914-0.51128-0.08875-0.70117-0.10938-0.18989-0.02064-0.54088-0.03564-0.78125-0.03317zm-1.957 35.096c0.005-0.0017 0.008 1.4937 0.008 3.3242v3.3281l-0.22266-0.02345c-0.12231-0.01279-0.47293-0.055-0.78125-0.09375-0.30829-0.03837-0.82912-0.11959-1.1562-0.17969-0.3275-0.05978-0.84885-0.17249-1.1582-0.25-0.30899-0.07751-0.79669-0.21827-1.084-0.3125s-0.67341-0.23108-0.85938-0.30469c-0.18562-0.07325-0.54653-0.2367-0.80078-0.36328-0.25424-0.12624-0.6166-0.33009-0.80469-0.45313-0.1881-0.12303-0.45346-0.33043-0.59179-0.46093-0.13832-0.1305-0.30071-0.31255-0.35938-0.40429-0.05901-0.09175-0.12532-0.23835-0.14843-0.32618-0.03198-0.1209-0.03266-0.19693-0.0017-0.30859 0.02209-0.08109 0.10714-0.24541 0.1875-0.36523 0.07999-0.12019 0.25869-0.31554 0.39844-0.43359 0.13939-0.11805 0.38403-0.301 0.54297-0.40626 0.1586-0.1049 0.49611-0.29296 0.75-0.41992 0.25388-0.1273 0.61873-0.2959 0.8125-0.37305 0.1938-0.07683 0.55258-0.20497 0.79687-0.2871 0.24465-0.08178 0.68516-0.21102 0.97851-0.28711 0.29336-0.07649 0.77305-0.18779 1.0664-0.2461 0.29335-0.05833 0.75746-0.13914 1.0312-0.17969 0.27381-0.04093 0.69905-0.09674 0.94336-0.12305 0.24464-0.02669 0.44815-0.04869 0.45313-0.05082zm4.0273 0.0097 0.13281 0.01177c0.0733 0.0068 0.34944 0.0365 0.61328 0.06643 0.2642 0.02985 0.75751 0.10167 1.0957 0.15821 0.33851 0.05688 0.86502 0.1613 1.1719 0.23242 0.30722 0.07112 0.79084 0.19787 1.0742 0.28321 0.28376 0.08534 0.70104 0.22681 0.92578 0.3125 0.22472 0.08606 0.55429 0.22202 0.73242 0.30274 0.17815 0.08075 0.45716 0.22023 0.62109 0.31055 0.16429 0.08996 0.43427 0.255 0.59961 0.36523 0.16535 0.11059 0.41317 0.31233 0.55079 0.44922 0.13761 0.1369 0.2975 0.33757 0.35546 0.44531 0.0761 0.14188 0.10547 0.24396 0.10547 0.37304 0 0.1145-0.0296 0.24098-0.084 0.35548-0.0497 0.10384-0.2052 0.29825-0.37305 0.46679-0.16178 0.1625-0.44205 0.39027-0.64258 0.52148-0.19557 0.12801-0.55173 0.33134-0.79101 0.45118-0.23932 0.11982-0.63144 0.29409-0.87109 0.38867-0.23967 0.09494-0.61368 0.23037-0.83203 0.30077-0.2187 0.07044-0.61045 0.18368-0.8711 0.25196-0.26065 0.06864-0.66568 0.16454-0.90039 0.21289-0.23469 0.04801-0.61883 0.12033-0.85351 0.16016-0.23469 0.03982-0.69876 0.1031-1.0313 0.14258-0.33247 0.03914-0.63383 0.07197-0.66797 0.07223h-0.0605zm0.0254 10.902c0.0146 0 0.20283 0.03948 0.41796 0.08789 0.21513 0.04869 0.57304 0.14514 0.79493 0.21484 0.22189 0.06967 0.5649 0.19626 0.76367 0.28125 0.19877 0.08502 0.48241 0.2238 0.62891 0.30664 0.14684 0.08288 0.36312 0.21598 0.48047 0.29492 0.11734 0.07896 0.32119 0.24965 0.45312 0.38086 0.14401 0.14366 0.27478 0.31519 0.32812 0.42969 0.0487 0.10489 0.0875 0.25327 0.0879 0.33007 0.00036 0.07717-0.0338 0.21136-0.0761 0.29883-0.0426 0.08748-0.18094 0.26882-0.30859 0.40429-0.12767 0.13512-0.38488 0.34785-0.57227 0.47266-0.18738 0.12446-0.52492 0.31537-0.75 0.42383-0.22545 0.10809-0.62521 0.26906-0.88867 0.35547-0.26349 0.0864-0.66535 0.19755-0.89259 0.24805-0.22721 0.0508-0.43107 0.0918-0.45312 0.0918-0.0295 0-0.0391-0.61654-0.0391-2.3106 0-1.2712 0.0108-2.3109 0.0254-2.3105zm-4.0762 0.0043h0.006c0.0146-0.0017 0.0254 1.0354 0.0254 2.3066 0 1.694-0.01 2.3125-0.0391 2.3125-0.0221 0-0.22591-0.0429-0.45313-0.0937-0.22722-0.0506-0.62909-0.16164-0.89258-0.24805-0.2635-0.0864-0.66323-0.24738-0.88867-0.35548-0.23088-0.10808-0.56847-0.29717-0.75586-0.42188-0.18738-0.12471-0.445-0.33771-0.57226-0.47266-0.1279-0.13558-0.26574-0.31927-0.30859-0.40625-0.04221-0.08762-0.07811-0.22609-0.07811-0.30859 0-0.08854 0.03633-0.21896 0.08789-0.32031 0.04767-0.09458 0.16535-0.25999 0.26172-0.36524s0.30111-0.28039 0.45508-0.39062c0.15432-0.11059 0.41048-0.27262 0.56836-0.35937 0.15788-0.08712 0.44204-0.22362 0.63086-0.30469 0.18917-0.08109 0.55255-0.21244 0.8086-0.29102 0.25566-0.07862 0.61178-0.17361 0.79101-0.21094 0.17921-0.03701 0.33893-0.06847 0.35351-0.07027zm0.006 9.0996c0.0146-0.00086 0.0254 0.59085 0.0254 1.3144 0 0.72365-0.005 1.3164-0.0136 1.3164-0.009 0-0.15727-0.0501-0.33008-0.11133-0.17282-0.0608-0.4412-0.17532-0.59766-0.25391-0.15646-0.0786-0.37273-0.20214-0.48047-0.2754-0.10738-0.0729-0.27118-0.21365-0.36328-0.31249-0.0921-0.0985-0.17667-0.22098-0.18946-0.27149-0.0124-0.0508-0.0124-0.13275 0-0.18359 0.0128-0.0505 0.0974-0.17297 0.18946-0.27148 0.0921-0.0989 0.2559-0.23961 0.36328-0.31251 0.10774-0.0733 0.31639-0.19361 0.46289-0.26757 0.14686-0.0744 0.40993-0.1876 0.58594-0.25196 0.17602-0.0644 0.33307-0.11807 0.34765-0.11913zm4.0586 0c0.009 0 0.15727 0.0483 0.33008 0.10937 0.17283 0.0608 0.4412 0.17532 0.59766 0.2539 0.15646 0.0786 0.37309 0.20214 0.48047 0.27539 0.10775 0.0729 0.27118 0.21366 0.36328 0.31251 0.0921 0.0985 0.17665 0.22098 0.18945 0.27148 0.0125 0.0508 0.0125 0.13275 0 0.18359-0.0128 0.0506-0.0974 0.17299-0.18945 0.27149-0.0921 0.0988-0.25553 0.23959-0.36328 0.31249-0.10738 0.0733-0.32401 0.19681-0.48047 0.2754-0.15646 0.0786-0.42483 0.1931-0.59766 0.25391-0.17281 0.0611-0.3219 0.11132-0.33008 0.11132-0.009 0-0.0136-0.59278-0.0136-1.3164s0.005-1.3144 0.0136-1.3144zm-2.041 16.928c-20.577 0.002-24.299 0.0112-24.473 0.0527-0.112 0.0274-0.28947 0.0907-0.39258 0.14257-0.10312 0.0519-0.25682 0.15171-0.3418 0.2207-0.08502 0.069-0.19276 0.16596-0.24219 0.2168-0.04912 0.0512-0.1494 0.18398-0.22266 0.29493-0.07325 0.11094-0.17252 0.31959-0.21875 0.46289-0.06472 0.19947-0.08399 0.33914-0.08399 0.59766 0 0.25851 0.01927 0.40012 0.08399 0.59961 0.04622 0.14331 0.1455 0.34999 0.21875 0.46093 0.07325 0.11095 0.17358 0.24372 0.22266 0.29492 0.04946 0.0508 0.1572 0.14977 0.24219 0.21875 0.08493 0.069 0.23939 0.16756 0.3418 0.21875 0.10241 0.0512 0.28553 0.11574 0.4082 0.14453 0.19557 0.0462 3.2022 0.0527 24.475 0.0527 21.489 0 24.277-0.005 24.479-0.0527 0.12517-0.0295 0.334-0.11071 0.46485-0.17968 0.13122-0.0686 0.32354-0.20886 0.42773-0.31055 0.10419-0.10206 0.24813-0.27578 0.32032-0.38672 0.0718-0.11094 0.16861-0.31763 0.21484-0.46093 0.0647-0.19949 0.084-0.34111 0.084-0.59961 0-0.25852-0.0193-0.39818-0.084-0.59766-0.0462-0.1433-0.14301-0.35194-0.21484-0.46289-0.0722-0.11094-0.21613-0.28466-0.32032-0.38672-0.10419-0.10169-0.29651-0.24191-0.42773-0.31054-0.13085-0.069-0.33968-0.14822-0.46485-0.17774-0.20161-0.0477-2.9859-0.0547-24.496-0.0527zm-0.0117 8c-11.384 0.002-14.303 0.013-14.451 0.0489-0.10205 0.0246-0.2951 0.0974-0.42774 0.16212-0.16357 0.08-0.32062 0.20005-0.49024 0.37109-0.1401 0.14117-0.29963 0.34554-0.36328 0.4668-0.06225 0.11912-0.1381 0.31093-0.16797 0.42578-0.02984 0.11486-0.05466 0.34584-0.05466 0.51368s0.02481 0.40077 0.05466 0.51562c0.02985 0.11484 0.10574 0.3047 0.16797 0.42382 0.06327 0.12055 0.22389 0.32794 0.36328 0.46876 0.1849 0.18668 0.31828 0.28574 0.51563 0.37891 0.14686 0.0697 0.35321 0.14467 0.45704 0.16601 0.13476 0.0281 4.2332 0.0391 14.426 0.0391s14.291-0.0109 14.426-0.0391c0.10383-0.0214 0.30859-0.0963 0.45508-0.16601 0.19736-0.0932 0.33267-0.19223 0.51757-0.37891 0.13939-0.14082 0.29999-0.34821 0.36329-0.46876 0.0622-0.11912 0.1381-0.30898 0.16797-0.42382 0.0298-0.11485 0.0527-0.34778 0.0527-0.51562s-0.0229-0.39882-0.0527-0.51368c-0.0298-0.11485-0.10575-0.30666-0.16797-0.42578-0.0634-0.12055-0.2239-0.32794-0.36329-0.46875-0.1849-0.18669-0.32021-0.28574-0.51757-0.3789-0.14649-0.0697-0.35125-0.14273-0.45508-0.16407-0.13512-0.0281-4.2311-0.0396-14.455-0.0371zm36 12.025c0.0146 0.00005 0.0274 1.3388 0.0274 2.9805v2.9863h-68.237l-0.27539 0.0703c-0.15149 0.0387-0.35801 0.11552-0.45899 0.16993-0.10135 0.0541-0.29616 0.2088-0.43555 0.3457-0.15931 0.15647-0.29447 0.32884-0.36132 0.46289-0.05867 0.11734-0.13596 0.30241-0.17188 0.41016-0.04554 0.13583-0.06447 0.29887-0.06447 0.5332 0.00035 0.21798 0.022 0.41317 0.06251 0.55077 0.03488 0.11735 0.11213 0.30046 0.17188 0.40821 0.05978 0.10739 0.17036 0.27029 0.2461 0.36133 0.07606 0.091 0.24698 0.23816 0.3789 0.32813 0.13193 0.0896 0.33366 0.19774 0.44922 0.23827 0.1152 0.0402 0.33944 0.0873 0.49804 0.10548 0.17601 0.0203 13.494 0.0332 34.24 0.0332h33.951l-0.0118 1.1836-0.0136 1.1816-0.0781 0.23437c-0.0431 0.12872-0.1391 0.32744-0.21484 0.44336-0.0757 0.11593-0.20125 0.27352-0.27734 0.34961-0.0761 0.0762-0.23368 0.19966-0.34961 0.27539-0.11591 0.0757-0.31464 0.17537-0.44336 0.21875l-0.23438 0.0781-36.359 0.01c-32.699 0.009-36.401 0.005-36.785-0.0449-0.23469-0.0305-0.55448-0.0891-0.71094-0.1289-0.15646-0.0402-0.43512-0.12989-0.62109-0.19923-0.18562-0.0693-0.44975-0.18137-0.58594-0.25-0.13619-0.0683-0.35282-0.18988-0.48047-0.26953-0.12765-0.0796-0.35598-0.23707-0.50782-0.35156-0.15184-0.1145-0.41118-0.34282-0.57617-0.50782-0.16499-0.16499-0.39579-0.42592-0.51172-0.57812-0.11592-0.15219-0.2751-0.38442-0.35547-0.51563-0.08033-0.13156-0.20143-0.34623-0.26758-0.47851-0.06651-0.13263-0.17675-0.39251-0.2461-0.57812-0.06933-0.18598-0.15939-0.46659-0.19921-0.62305s-0.09673-0.47233-0.12695-0.70312c-0.02985-0.23078-0.05466-0.56459-0.05466-0.74024 0-0.17567 0.01612-0.4742 0.03709-0.66407 0.02098-0.18988 0.07061-0.48998 0.10937-0.66601 0.03871-0.17602 0.11995-0.46461 0.17969-0.64063 0.05978-0.17602 0.1872-0.48164 0.28321-0.67968 0.09637-0.19806 0.26388-0.49463 0.37304-0.6582 0.10917-0.16357 0.28856-0.40625 0.39844-0.54102 0.10952-0.13442 0.34281-0.38028 0.51953-0.54492 0.17673-0.16499 0.46654-0.4011 0.64258-0.52734 0.17601-0.12588 0.527-0.33275 0.78125-0.45899 0.25424-0.12623 0.61464-0.27975 0.79883-0.33985 0.18455-0.0597 0.48875-0.14411 0.67578-0.18749l0.33984-0.0781 34.811-0.0215c26.988-0.016 34.881-0.0292 35.115-0.0625 0.16642-0.0239 0.45502-0.0687 0.64063-0.0996 0.18597-0.031 0.54458-0.10875 0.79882-0.17383 0.25424-0.0651 0.6038-0.16896 0.77735-0.23047 0.17353-0.0619 0.4857-0.18525 0.69336-0.27344 0.20802-0.0878 0.55886-0.25587 0.7793-0.375 0.22046-0.11875 0.58102-0.34106 0.80077-0.49219 0.21673-0.14938 0.40074-0.26995 0.41993-0.27539z"
     fill="#000000" /></svg>